# xmcd
#
# Track frame offsets: 
#        150
#        15915
#        30116
#        45185
#        61306
#        74967
#        89617
#        106248
#        125591
#        143324
#        155825
#        174195
#        189388
#        205425
#        228332
#        244566
#        264164
#        281013
#        296627
#        314000
#
# Disc length: 4419 seconds
#
# Revision: 2
# Processed by: cddbd v1.5.2PL0 Copyright (c) Steve Scherf et al.
# Submitted via: ExactAudioCopy v1.1
#
DISCID=13114114
DTITLE=The Dinky Toys - Roll With The Hits
DYEAR=2017
DGENRE=Pop
TTITLE0=Roll With The Punches
TTITLE1=The Sweetest Hangover
TTITLE2=Out In The Streets (She Boom)
TTITLE3=The Test Of Time
TTITLE4=The Dinky Toys Feat. Bea Luna - Declaracion De Amor
TTITLE5=My Day Will Come
TTITLE6=Since You're Back In Town
TTITLE7=Three Little Birds
TTITLE8=Don't Give Up
TTITLE9=You Smile At Me
TTITLE10=One More Try
TTITLE11=The Dinky Toys Feat. Khadja Nin - Love's Embrace
TTITLE12=I Can't Keep My Hands Off You
TTITLE13=The Medley (Live @ Marktrock'94)
TTITLE14=Keep Hope Alive (Live @ Marktrock'94)
TTITLE15=Out In The Street (Live @ Marktrock'94)
TTITLE16=Passion Is Burning
TTITLE17=I Hope I Don't Fall In Love
TTITLE18=What's On Your Mind
TTITLE19=Just What I Need Tonight
EXTD=
EXTT0=
EXTT1=
EXTT2=
EXTT3=
EXTT4=
EXTT5=
EXTT6=
EXTT7=
EXTT8=
EXTT9=
EXTT10=
EXTT11=
EXTT12=
EXTT13=
EXTT14=
EXTT15=
EXTT16=
EXTT17=
EXTT18=
EXTT19=
PLAYORDER=
